<svg id="Layer_2" data-name="Layer 2" xmlns="http://www.w3.org/2000/svg" viewBox="0 0 1382 979.67"><title>2</title><path d="M693.37,1034.84l59,34.5,276-5.5s1,40,68,40,66-44,66-44h125v-25l-538,15Z" transform="translate(-92.37 -124.16)"/><path d="M526.37,1006.84v33.5c6,2,54.5,22.5,54.5,22.5h44l23-30.5c-17-15-102.5-45.5-102.5-45.5Z" transform="translate(-92.37 -124.16)"/><path d="M585.51,1080l-77.64-34.71-1-39.5,19.5-19-26.5-12.5c0-128.86-10.27-180.11-16.09-198.8A12.94,12.94,0,0,0,468.62,767c-30.25,7.19-66.25,50.5-66.25,169.88,0,94.66,28.8,139.43,45.09,157.2a30.22,30.22,0,0,0,22.27,9.8H580.44a12.44,12.44,0,0,0,5.07-23.79Zm-132.7-11.24-4.88,1.07c-18.67-85.32-16.31-156.09-11-200.43,5.72-48.14,16-76.52,16.14-76.8l4.69,1.72c-.1.28-10.25,28.25-15.89,75.86C436.63,914.15,434.31,984.26,452.81,1068.8Zm24.38-2.91-4.93.8c-23.16-144.24,1.08-265.81,1.33-267l4.9,1C478.24,801.87,454.19,922.6,477.19,1065.89Z" transform="translate(-92.37 -124.16)"/><path d="M240.71,902.17l-30-14a397.84,397.84,0,0,0,0-78c-9-101.45-30.59-23.09-32.9-2-.07.66-2.11.59-2.16-.07-5.53-72.77-40.94-85.34-40.94,38.07,0,125.33,54.66,100,54.66,100,26,43.33,129.34,26.66,129.34,26.66l-78-37.61Zm-85.34,6.66c-4.42,0-8-28-8-62.5s3.58-62.5,8-62.5,8,28,8,62.5S159.79,908.83,155.37,908.83Zm38.25,16c-4.55,0-8.25-30.55-8.25-68.25s3.7-68.25,8.25-68.25,8.25,30.56,8.25,68.25S198.18,924.83,193.62,924.83Z" transform="translate(-92.37 -124.16)"/><path d="M272,904.16l116.33,31.06c0-123.61,22-151.39,22-151.39l17-317c3-52.86,3.2-84.75,4.61-102.4,1.46-18.17,11.43-35.45,28-43.13,40-18.55,124.94-49.59,154.51-59.36a197.42,197.42,0,0,1,48.28-9.64c37.79-2.62,82.29.71,113.45,4.05,23.32,2.49,39.18,5,39.18,5a26.87,26.87,0,0,1,30.28-25.73l56.22,7.23.34-2.07a38.22,38.22,0,0,1,40.93-32l132.23,11.05-18.5-50.5C815.37,131.83,444,124.16,444,124.16L416,145.5v33.33l436,27.33L430.37,190.83l-99.5,55h-53.5l-.5,22.5-51.5,33.83c-98.5-17.33-84,54-84,54l-40,25.34-2.67,152L396,467.5,96.7,548.16,96,614.37l294.66-9.54L96.37,630.33l-4,190.5,31,16c0-55.33,14.33-110,34.33-110,19.36,0,19.67,43.42,19.67,46.19,0-39.86,20.67-38.19,20.67-38.19,32.66,0,24,147.33,24,147.33l28,15.34v33.91L352.7,976h37l-2.33-23.82ZM212.37,468.33l-29.5,12v-98.5l34.5-14.5Zm74-24-43.5,15.5V355.33l46-21.5Zm91-11,4.5-151.5,43.5-23.5-3,160Z" transform="translate(-92.37 -124.16)"/><polygon points="292.09 298.32 323.8 287.75 325.91 146.03 295.26 162.58 292.09 298.32"/><path d="M998.12,275.09s11.75-35,2-45.75c0,0-20.08-5.17-40.08-5.17s-33,6.67-38.67,20.67c0,0,40-2.67,34,35.33L1122,296.84s19.33-9.34,19.33-34S1124,240.5,1094.7,239.5c0,0,3.67,27.34-13.33,44.84,0,0,12.5-36.69,4.5-46.85l-77.5-8.15S1017.12,258.09,998.12,275.09Z" transform="translate(-92.37 -124.16)"/><path d="M1474.37,939.83l-59-17-655,2c-53-7-145-11-145-11v87l47,24,72,10,14-91,4,91,717-11,5-72c-109-2-203-13-203-13Zm-621.83,76.34c-15,0-27.17-13.51-27.17-30.17s12.16-30.17,27.17-30.17,27.17,13.51,27.17,30.17S867.54,1016.17,852.54,1016.17Zm365.5,0H1004.71V938.83H1218Z" transform="translate(-92.37 -124.16)"/><rect x="926.34" y="825.34" width="189.66" height="56"/><path d="M1347.86,848.53a34.12,34.12,0,0,0,1.67,68.08c16.22.61,36.38,1,55.48.3a29.46,29.46,0,0,0,28.36-29.46V875a25.75,25.75,0,0,0-22.75-25.57A305.23,305.23,0,0,0,1347.86,848.53Zm73.85,35.3c0,13.81-9.41,25-21,25s-21-11.19-21-25,9.4-25,21-25S1421.71,870,1421.71,883.83Z" transform="translate(-92.37 -124.16)"/><path d="M944.37,269.91a14.67,14.67,0,0,0-13-14.57l-86.87-9.93a12.4,12.4,0,0,0-13.81,12.32V279.5s-131.46-18.33-178-10.32C605.37,277.33,507.84,319.64,464,338a31.85,31.85,0,0,0-19.49,27.85L425.37,766.61c21.33-76.89,53.33-50.45,53.33-50.45L494,417.5l-3.67,321.33c34,86,25,227,25,227l85,28c3-45-7.5-350-7.5-350L614.07,891c57.5,36.66,705.3,19.17,705.3,19.17-13-16.33-12.67-30.66-12.67-30.66,0-56,98-40.67,98-40.67,10-129,9.67-245,4.67-309-3.16-40.49-8.93-110.6-12.74-156.64a53.38,53.38,0,0,0-49.14-48.82l-59.62-4.54V302.09a13.49,13.49,0,0,0-12.21-13.42l-68.19-6.5a12.88,12.88,0,0,0-14.1,12.82v15.34l-249-21.5Zm-353,280.28a15.05,15.05,0,0,1-20.88,13.88l-17.71-7.43A33.28,33.28,0,0,1,532.37,526V366.31c0-9.77,7.8-19.49,17.32-21.62l24.18-5.4a14.37,14.37,0,0,1,17.5,14ZM840.45,286.34l1.85-18.48a8.07,8.07,0,0,1,8.81-7.19l65.35,6.56a8,8,0,0,1,7.19,8.8l-1.85,18.48a8.06,8.06,0,0,1-8.8,7.2l-65.36-6.57A8.06,8.06,0,0,1,840.45,286.34Zm34.26,489.33c0,11.64-9.53,23.16-21.17,23.16l-100-2c-11.64,0-20.17-9.52-20.17-21.16V686c0-11.64,8.53-21.17,20.17-21.17l100,2c11.64,0,21.17,7.53,21.17,19.17Zm355.5,112.64c-.13,6.59-7.63,11.89-14.23,11.77L895.35,896c-6.6-.12-15.9-9.62-15.77-16.22L888.45,623c.13-6.59,7.63-14.89,14.23-14.77l322.63,13.07c6.6.13,11.9,7.63,11.77,14.22Zm145.18-102.55c-.18,9.93-8.57,19.6-18.59,19.41l-86.08-3.32c-10-.18-17.21-8.44-17-18.36l1.43-76.43c.19-9.93,7.68-17.91,17.71-17.72l86.07,3.31c10,.19,18.11,6.76,17.92,16.68ZM1204.77,298.29a3.91,3.91,0,0,1,4.18-3.6l62.11,4.62a3.91,3.91,0,0,1,3.6,4.18l-1.85,24.85a3.91,3.91,0,0,1-4.18,3.6l-62.11-4.63a3.9,3.9,0,0,1-3.6-4.17Zm132.6,54c55,2.05,45.5,34.5,48,60s12.5,140.5,14.5,171.63-24.75,33.87-37.25,33.62-102.75-7.25-144.25-9.75-86-5.5-111.5-6-34.5-32.48-34.5-32.48-5.5,33-24.5,30-119.5-9.5-137.5-9.5-118.5-9.5-146.5-10.33-58.5,2-83.16,2.46c-11.66.21-26.89,1.23-39.72.13a29,29,0,0,1-26.46-27.93c-1.63-50.09-5-159.9-4.49-194,.67-44.67,25.33-52.67,52.67-58s98.16,3.16,98.16,3.16S1256.87,349.33,1337.37,352.33Z" transform="translate(-92.37 -124.16)"/><path d="M1077.87,534.33c3.5,24,8,52.5,34,53.5l26,1s94,5,125.5,8,112.5,9.5,120,0,3.5-37.5,0-65.5-9-143-14.5-157c-5.26-13.39-253-25.26-297.43-31.37a4,4,0,0,0-4.56,4.14c.56,14.91,2.4,60.2,5.16,87.73C1075.37,468.17,1074.37,510.33,1077.87,534.33Zm152.5,22s42.5-41,111.5-73.5C1341.87,482.83,1310.87,518.33,1230.37,556.33Zm-100-23.5s107.5-85,200-128.5C1330.37,404.33,1209.37,495.83,1130.37,532.83Zm118.5-147s-51,41.56-142.49,86.52C1107.39,471.54,1171.9,419.58,1248.87,385.83Z" transform="translate(-92.37 -124.16)"/><path d="M692,311.83s-70.67-9-68,51.67c2.14,48.81,3,150.71,3.25,188.67a16.09,16.09,0,0,0,15.27,16,458.26,458.26,0,0,0,60.81-1.3C750.34,563,945.26,584,1045,584c6.9,0,14-5.5,15.62-12.2,3.8-15.19,3.56-40.4,2-59.3-1.37-16.13-2.47-32.29-3.13-48.47-1.52-37.28-4.19-95.74-6.71-117.48a6.25,6.25,0,0,0-5.6-5.49C1007.34,337.17,737.71,311.22,692,311.83Zm166.35,229c1.42-.91,93-59.32,156.47-81.81C1014.13,459.58,967,496.67,858.39,540.82Zm90.48-170.49s-59,37.5-133,59.5C815.87,429.83,866.37,390.83,948.87,370.33Zm66,27.76c-1.75,1.11-114.2,71.94-208,99.23C808.68,496.28,923.57,429.59,1014.85,398.09Z" transform="translate(-92.37 -124.16)"/><path d="M542.71,377.51V523.09a23.55,23.55,0,0,0,11.56,20.42c11.23,6.51,25.77,10,25.77,10v-202c-9.19,0-16.14.38-21.39,2.4A25.21,25.21,0,0,0,542.71,377.51Z" transform="translate(-92.37 -124.16)"/><rect x="653" y="551.34" width="54" height="46" rx="12"/><rect x="717" y="555.34" width="54" height="46" rx="12"/><rect x="717" y="613.34" width="54" height="48.83" rx="12"/><rect x="653" y="610.01" width="54" height="49.33" rx="12"/><path d="M1299.87,699l-22.51-.3a12,12,0,0,0-12.16,11.84l-.2,15.22a12,12,0,0,0,11.84,12.15l22.51.3a12,12,0,0,0,12.15-11.84l.21-15.21A12,12,0,0,0,1299.87,699Z" transform="translate(-92.37 -124.16)"/><path d="M1354.93,703.17l-22.5-.3a12,12,0,0,0-12.16,11.84l-.2,15.22a12,12,0,0,0,11.84,12.15l22.5.3a12,12,0,0,0,12.16-11.84l.2-15.21A12,12,0,0,0,1354.93,703.17Z" transform="translate(-92.37 -124.16)"/><path d="M1354.28,752.61l-22.51-.3a12,12,0,0,0-12.15,11.84l-.24,17.63a12,12,0,0,0,11.84,12.16l22.5.3a12,12,0,0,0,12.16-11.84l.24-17.63A12,12,0,0,0,1354.28,752.61Z" transform="translate(-92.37 -124.16)"/><path d="M1299.2,749l-22.5-.3a12,12,0,0,0-12.16,11.84l-.24,18.06a12,12,0,0,0,11.84,12.16l22.5.3a12,12,0,0,0,12.16-11.84l.24-18.06A12,12,0,0,0,1299.2,749Z" transform="translate(-92.37 -124.16)"/><path d="M919.34,641.36l296.76,14.27h.52a10.64,10.64,0,0,0,.47-21.26L920.29,621h-.47a10.19,10.19,0,0,0-.48,20.36Z" transform="translate(-92.37 -124.16)"/><path d="M1217,668.1,917.64,656.53h-.39a10.19,10.19,0,0,0-.45,20.37l299.31,12.47a10.69,10.69,0,0,0,11.18-10.64v-.05A10.69,10.69,0,0,0,1217,668.1Z" transform="translate(-92.37 -124.16)"/><path d="M1213.27,698.74,915.32,689H915a10.19,10.19,0,0,0-.35,20.37L1212.54,720a10.65,10.65,0,0,0,11-10.64v-.13A10.65,10.65,0,0,0,1213.27,698.74Z" transform="translate(-92.37 -124.16)"/><path d="M1212.27,736.88,913.46,726.51H913a10.19,10.19,0,0,0-.47,20.37l298.76,11.27h.52a10.64,10.64,0,0,0,.47-21.27Z" transform="translate(-92.37 -124.16)"/><path d="M1208,774,910.17,764.6h-.47a10.19,10.19,0,0,0-.48,20.36L1207,795.22h.52A10.64,10.64,0,0,0,1208,774Z" transform="translate(-92.37 -124.16)"/><path d="M1207.15,803.86l-297.08-4.12h-.14a10.19,10.19,0,0,0-.17,20.38l297.06,5a10.64,10.64,0,0,0,10.83-10.63c0-.11,0-.23,0-.34A10.63,10.63,0,0,0,1207.15,803.86Z" transform="translate(-92.37 -124.16)"/><path d="M1206.6,832.42l-297.1-2.64h-.08a10.19,10.19,0,0,0-.13,20.38l297.09,3.54a10.65,10.65,0,0,0,10.77-10.63c0-.13,0-.26,0-.39A10.65,10.65,0,0,0,1206.6,832.42Z" transform="translate(-92.37 -124.16)"/><path d="M1206.54,869.71l-297.07-5h-.18a10.19,10.19,0,0,0-.19,20.37l297.05,5.9A10.63,10.63,0,0,0,1217,880.35v-.3A10.64,10.64,0,0,0,1206.54,869.71Z" transform="translate(-92.37 -124.16)"/></svg>